<svg width="53" height="34" viewBox="0 0 53 34" fill="none" xmlns="http://www.w3.org/2000/svg">
<path d="M42.6727 13.4834C41.7363 13.4834 40.7526 13.6101 39.8896 13.8431L36.2035 6.70944V3.8478C36.2035 1.75198 34.6411 0 32.5308 0H29.4016C28.6235 0 27.993 0.626282 27.993 1.3992C27.993 2.17212 28.6235 2.7984 29.4016 2.7984H32.5308C33.0875 2.7984 33.3863 3.29484 33.3863 3.8478V5.5968H16.8281L15.8644 4.10432H17.6729C18.451 4.10432 19.0814 3.47804 19.0814 2.70512C19.0814 1.9322 18.451 1.30592 17.6729 1.30592H9.40925C8.63116 1.30592 8.00068 1.9322 8.00068 2.70512C8.00068 3.47804 8.63116 4.10432 9.40925 4.10432H12.546L14.041 6.48986C14.0196 6.5393 13.9976 6.58837 13.9818 6.64079L11.8891 13.601C11.3796 13.5239 10.858 13.4836 10.3273 13.4836C4.63269 13.4834 0 18.0855 0 23.7422C0 29.3989 4.63269 33.9804 10.3271 33.9804C15.5142 33.9804 19.8186 30.2227 20.5448 25.1856H22.4545C22.9285 27.0512 24.5816 28.3426 26.5427 28.3426C28.8723 28.3426 30.7677 26.4699 30.7677 24.1558C30.7677 23.4297 30.5808 22.7512 30.2529 22.1547L37.0142 14.2362L37.3705 14.9416C34.3629 16.7367 32.3457 20.0093 32.3457 23.7413C32.3457 29.3977 36.9785 34 42.6729 34C48.3673 34 53 29.3983 53 23.7418C53 18.0853 48.3671 13.4834 42.6727 13.4834ZM16.0185 9.64534L23.3781 21.3693C23.103 21.6783 22.8733 22.0141 22.6986 22.3872H20.5666C20.1035 18.8426 17.7782 15.8227 14.5885 14.3812L16.0185 9.64534ZM12.8756 22.3872C12.7453 22.2006 12.5787 21.9245 12.3808 21.7238L13.4982 17.9971C15.1525 18.9065 16.3728 20.5216 16.7642 22.3872H12.8756ZM10.3271 30.2492C6.70386 30.2492 3.75619 27.331 3.75619 23.7319C3.75619 20.1326 6.70386 17.2096 10.3271 17.2096C10.4852 17.2096 10.6415 17.2197 10.7968 17.2307L9.66617 20.9923C8.45311 21.304 7.55313 22.398 7.55313 23.6991C7.55313 25.2419 8.8169 26.4772 10.3699 26.4772C11.3561 26.4772 12.2241 25.9318 12.7275 25.1856H16.7246C16.0462 28.1706 13.4364 30.2492 10.3271 30.2492ZM28.1568 20.2882C27.6591 20.083 27.114 19.9692 26.5425 19.9692C26.3042 19.9692 26.0708 19.9673 25.8431 20.0052L18.5817 8.3952H34.0805L35.6395 11.4994L28.1568 20.2882ZM42.6727 30.2694C39.0493 30.2694 36.1017 27.3413 36.1017 23.7422C36.1017 21.4662 37.2811 19.4597 39.064 18.2911L42.1395 24.3705C42.3867 24.8593 42.8835 25.1418 43.3992 25.1418C43.6118 25.1418 43.8276 25.0936 44.0306 24.9923C44.7255 24.6455 45.0059 23.8043 44.6566 23.1139L41.7081 17.2857C42.0231 17.2394 42.345 17.2148 42.6727 17.2148C46.296 17.2148 49.2436 20.1429 49.2436 23.7422C49.2436 27.3413 46.296 30.2694 42.6727 30.2694Z" fill="white"/>
</svg>
