<svg width="41" height="36" viewBox="0 0 41 36" fill="none" xmlns="http://www.w3.org/2000/svg">
<path d="M18.7305 7.9651C20.2604 8.14168 21.6447 7.04082 21.8199 5.51023L16.2729 4.87634C16.0984 6.40761 17.1985 7.79059 18.7305 7.9651Z" fill="white"/>
<path d="M21.9724 5.08878L23.2809 5.24605L23.4057 4.21002L21.831 3.80168C21.4806 2.78704 20.5798 2.00692 19.4423 1.87104C17.8545 1.68067 16.4136 2.81326 16.2232 4.4004L20.4011 4.90048L21.9724 5.08878Z" fill="white"/>
<path d="M23.6671 15.3324C21.1033 14.5827 19.5692 12.7886 18.5029 10.4869C18.0497 8.221 14.5885 6.9208 13.0882 9.48671C12.0991 11.1787 11.1535 12.8969 10.2409 14.631L15.2803 17.5997C15.8549 16.5085 16.4474 15.4276 17.0502 14.3516C18.4339 16.2698 20.259 17.728 22.8008 18.4722H22.8022L24.2776 35.3797L25.3488 35.2866L23.8775 18.4198C25.0494 17.8832 25.2667 15.8001 23.6671 15.3324Z" fill="white"/>
<path d="M7.61153 17.6742L13.5387 7.53055C13.5387 7.53055 12.6061 6.63454 11.368 6.14895C11.0948 4.98739 10.2526 4.04656 9.15246 3.6327V1.25095L9.54631 1.14059C8.49581 -0.172718 6.26235 2.06004 6.26235 2.06004L8.10126 1.54479V3.41198C8.03573 3.40853 7.9709 3.40163 7.90468 3.40163C5.94024 3.40163 4.34275 4.99912 4.34275 6.96356C4.34275 7.07323 4.34964 7.18084 4.3593 7.28844C4.34896 7.39535 4.34275 7.50364 4.34275 7.61263C4.34275 7.64781 4.34689 7.68229 4.34827 7.71747C4.34689 7.75265 4.34275 7.78714 4.34275 7.82231C4.34275 8.02373 4.36344 8.22031 4.39586 8.41275C4.36344 8.60519 4.34275 8.80178 4.34275 9.00319C4.34275 9.80883 4.6152 10.551 5.06769 11.1483C3.98545 13.0169 2.83079 15.0089 2.40452 15.7629C1.37194 17.5914 6.58103 19.4965 7.61153 17.6742ZM9.15177 3.91136C10.0278 4.27073 10.7155 4.99705 11.0238 5.89788C10.6154 5.15914 9.94982 4.58664 9.15177 4.2859V3.91136ZM9.15177 4.77219C9.73324 5.01153 10.2299 5.41229 10.5892 5.91857C10.2575 5.85097 9.91327 5.82752 9.5677 5.86546C9.43388 5.79372 9.29524 5.73234 9.15177 5.67853V4.77219ZM5.69882 10.0599C5.28772 9.68812 4.96905 9.21494 4.78488 8.67969C5.0401 9.14114 5.39877 9.53568 5.82367 9.84401C5.78228 9.91574 5.74021 9.98748 5.69882 10.0599ZM8.10126 6.46624C7.76466 6.72835 7.44047 7.08427 7.13835 7.55745C6.91073 7.96096 6.47411 8.71901 5.95196 9.6219C5.4036 9.21701 4.98423 8.64589 4.76833 7.98441C5.19943 6.66282 6.44169 5.70474 7.90468 5.70474C7.9709 5.70474 8.03642 5.70888 8.10126 5.71302V6.46624ZM7.90468 3.66443C7.9709 3.66443 8.03642 3.66857 8.10126 3.67202V4.06518C8.03573 4.06173 7.97159 4.05139 7.90468 4.05139C6.56309 4.05139 5.39188 4.7984 4.78557 5.89719C5.22978 4.60113 6.45825 3.66443 7.90468 3.66443ZM7.90468 4.52318C7.9709 4.52318 8.03573 4.5287 8.10126 4.53284V5.45712C8.03573 5.45367 7.97159 5.44264 7.90468 5.44264C6.46101 5.44264 5.21806 6.30691 4.65935 7.54503C4.65038 7.49468 4.64279 7.44433 4.63659 7.39397C4.84765 5.77717 6.23063 4.52318 7.90468 4.52318ZM4.61382 9.18253C4.81179 9.65984 5.11114 10.0847 5.4843 10.431C5.39463 10.5855 5.30359 10.7428 5.21185 10.9014C4.8649 10.4096 4.64831 9.81987 4.61382 9.18253Z" fill="white"/>
<path d="M19.5768 34.2974C19.5768 34.2974 19.1747 34.1774 18.6657 33.927L18.3835 34.4457L18.0876 34.2947L18.3725 33.7718C18.2842 33.7242 18.1952 33.6711 18.1063 33.6153L17.8504 34.0857L17.5551 33.936L17.8297 33.4304C17.7497 33.3725 17.6703 33.3104 17.5924 33.2462L17.362 33.6718L17.0654 33.5201L17.1496 33.3663C17.4186 33.1738 17.6283 32.88 17.709 32.4606C17.8041 31.9585 17.8731 31.6032 17.92 31.3542C17.9931 30.97 18.018 30.8438 18.018 30.8438C18.0656 30.5955 18.1332 30.2389 18.229 29.7374H18.227C18.625 28.1634 19.0223 26.59 19.4209 25.0146C19.4658 24.8367 19.4816 24.6711 19.4768 24.5145C19.5975 24.0979 19.5299 23.6241 19.163 23.1633C17.8435 21.5051 16.3377 20.0663 14.614 18.8764C14.7292 18.6543 14.8458 18.4308 14.9623 18.208L9.92361 15.2386C9.78635 15.5021 9.64771 15.7649 9.51183 16.0291C9.38698 16.2719 9.30145 16.5126 9.24351 16.7492C8.73171 17.8928 6.66656 22.3673 3.73438 26.8735L3.63298 26.808C3.42399 27.1294 2.34658 28.8242 2.11896 29.1615C2.10378 29.1863 2.0955 29.2111 2.08102 29.236L2.00515 29.3553L0.800821 31.0749L0.805649 31.0762C0.80289 31.0797 0.795303 31.0845 0.795303 31.0845L0.57251 31.4494C0.57251 31.4494 0.597341 31.5184 0.654591 31.5529L2.48315 32.6986L4.8449 34.1774L5.8285 34.7941C5.88575 34.8313 5.94438 34.8423 5.95817 34.8217L6.1582 34.5002C6.16096 34.4968 6.15958 34.4913 6.15889 34.4857L6.16441 34.4913C6.16441 34.4913 6.66794 33.9201 6.18717 33.4421C6.18717 33.4421 5.85678 33.1835 5.47465 32.7655L5.02217 33.1455L4.80144 32.8979L5.25737 32.5158C5.19323 32.4385 5.12977 32.3578 5.06769 32.2723L4.65728 32.6158L4.43725 32.3682L4.878 31.9985C4.8242 31.9157 4.77247 31.8288 4.7235 31.7405L4.35379 32.0529L4.13237 31.8046L4.26688 31.6915C4.58762 31.6115 4.88973 31.4149 5.11804 31.0521C5.3905 30.6203 5.58363 30.3134 5.71882 30.0982C5.92713 29.7678 5.9968 29.6574 5.99611 29.6588C6.00094 29.6505 6.00715 29.6415 6.01197 29.6333L6.01956 29.6402C6.01956 29.6402 6.04232 29.5967 6.08164 29.5229C6.20994 29.3194 6.37617 29.0539 6.5962 28.7042L6.53688 28.6662C7.43633 26.9791 9.35456 23.402 11.0272 20.4318C11.1714 20.6781 11.3887 20.9009 11.6901 21.0733C13.3228 22.0017 14.7526 23.244 15.9652 24.6739C15.5948 26.1389 15.2251 27.6033 14.8554 29.0677L14.7775 29.0532C14.6988 29.4291 14.314 31.3977 14.2257 31.797C14.2201 31.826 14.2222 31.8515 14.2181 31.8798L14.1898 32.0185L13.6959 34.0581H13.7014C13.6994 34.0622 13.6939 34.0691 13.6939 34.0691L13.6201 34.4906C13.6201 34.4906 13.6683 34.5457 13.7352 34.5582L15.8556 34.9582L18.5939 35.4728L19.7341 35.6873C19.801 35.6997 19.8603 35.6901 19.8652 35.6659L19.9348 35.2941C19.9362 35.2893 19.9328 35.2852 19.9307 35.2803L19.9369 35.2824C19.9376 35.2817 20.1983 34.5664 19.5768 34.2974Z" fill="white"/>
<path d="M21.8206 13.6977H40.3552L36.3829 3.74719L31.0876 13.139L27.2132 8.24513L22.9774 12.3644L21.8206 13.6977Z" fill="white"/>
</svg>
