<svg width="297" height="297" viewBox="0 0 297 297" fill="none" xmlns="http://www.w3.org/2000/svg">
<path d="M225.333 0.409851C211.998 0.409851 200.29 3.01885 190.21 6.77585C190.74 8.46485 191.199 10.2079 191.459 12.0029C192.013 15.8299 191.939 19.7529 191.216 23.6869C200.669 19.5349 212.196 16.4099 225.489 16.4099C240.925 16.4099 254.97 22.1288 265.331 32.5128C275.539 42.7438 281 56.5579 281 71.4099V225.41C281 236.24 278.569 246.436 273.739 255.078C273.698 251.614 273.412 247.98 272.693 244.171L266.366 210.414L263.855 196.994C259.084 171.708 252.679 158.346 248.987 152.304C250.55 146.81 252.556 136.725 250.474 125.687C247.807 111.555 241.768 101.071 230.957 91.8949L211.201 57.6098C209.63 54.8838 206.594 53.3268 203.474 53.6438C200.342 53.9568 197.685 56.0778 196.685 59.0608L190.346 77.9708C187.638 78.1318 184.772 78.5008 181.665 79.0858L176.365 80.0869C173.28 80.6689 170.463 81.3739 167.867 82.2169L155.095 67.0028C153.074 64.5948 149.833 63.5948 146.803 64.4448C143.777 65.2958 141.529 67.8399 141.058 70.9479L135.14 110.025C128.417 122.508 126.61 134.465 129.273 148.581C131.361 159.649 136.973 168.312 140.477 172.851C139.283 179.814 138.247 194.559 143.008 219.797L151.908 266.974C154.015 278.143 158.585 285.909 165.879 290.714C173.545 295.765 182.829 296.478 190.062 296.534C191.078 296.542 192.587 296.546 194.436 296.546C199.046 296.546 205.843 296.525 212.332 296.497C221.95 296.458 230.894 296.41 231.043 296.409C231.213 296.408 231.215 296.399 231.384 296.387C268.948 295.915 297 265.571 297 225.41V71.4099C297 31.5969 265.614 0.409851 225.333 0.409851Z" fill="white"/>
<path d="M127.286 222.742C123.24 201.297 123.084 186.384 123.862 177.018C119.979 170.943 115.555 162.172 113.55 151.545C110.424 134.978 112.44 119.75 119.713 105.036L123.404 80.6648C122.503 80.4618 121.585 80.2669 120.633 80.0869L115.329 79.0858C112.225 78.5008 109.359 78.1318 106.651 77.9708L100.312 59.0608C99.312 56.0778 96.655 53.9568 93.523 53.6438C90.387 53.3268 87.367 54.8828 85.795 57.6098L66.041 91.8949C55.23 101.071 49.188 111.555 46.521 125.688C44.439 136.725 46.439 146.81 48.002 152.304C44.31 158.346 37.894 171.708 33.123 196.994L24.223 244.171C23.594 247.504 23.071 250.699 22.962 253.769C18.534 245.405 16 235.686 16 225.41V71.4099C16 40.5689 40.764 16.4099 72.166 16.4099C84.857 16.4099 96.038 19.3039 105.269 23.2199C104.624 19.4419 104.592 15.6769 105.124 12.0019C105.403 10.0739 105.882 8.20585 106.471 6.40185C96.629 2.84785 85.041 0.409851 72.156 0.409851C31.782 0.409851 0 31.5969 0 71.4099V225.41C0 265.073 27.83 295.158 64.88 296.353C64.984 296.361 65.166 296.374 65.27 296.383C65.47 296.4 65.713 296.408 65.914 296.409C66.165 296.41 91.1 296.546 102.542 296.546C104.391 296.546 105.911 296.542 106.926 296.534C118.527 296.443 131.802 294.387 139.612 281.854C138.14 278.161 136.99 274.17 136.183 269.891L127.286 222.742Z" fill="white"/>
<path d="M148.49 49.2438C185.995 25.3138 175.594 3.99484 165.664 0.81584C157.292 -1.85716 151.365 2.36484 148.49 8.72684C145.037 3.02884 139.688 -1.85716 131.32 0.81584C121.386 3.99484 110.984 25.3148 148.49 49.2438Z" fill="white"/>
</svg>
