<svg width="30" height="34" viewBox="0 0 30 34" fill="none" xmlns="http://www.w3.org/2000/svg">
<path d="M28.4075 12.3838H18.2944V7.90564H11.2496V12.3838H1.13703C0.608731 12.3838 0.180658 12.8119 0.180658 13.3396C0.180658 13.8673 0.608731 14.2953 1.13703 14.2953H11.2496V18.7735H13.6073V20.2244C13.6073 20.5643 13.7564 20.8686 13.9901 21.0817C13.8385 21.1071 13.6797 21.127 13.5216 21.1445C12.8429 21.2236 12.0737 21.3129 11.9113 22.0332L11.9041 22.0942C11.9004 22.2892 11.9723 22.4625 12.1117 22.5966C12.544 23.012 13.5209 22.9775 15.0805 22.8846C16.3043 22.8127 17.8276 22.7228 18.278 23.1333C18.3547 23.204 18.3916 23.2843 18.3946 23.3941C18.4139 23.984 17.4738 24.103 16.1425 24.2068C15.0654 24.2907 14.0492 24.3704 13.5825 24.9181C13.4002 25.1318 13.3205 25.3944 13.3459 25.6999L13.6979 25.6704C13.5777 25.6861 13.4557 25.7011 13.3459 25.7199V26.7082L15.8708 26.7203C17.7497 26.7203 18.7985 27.7582 18.7864 29.5743C18.7864 31.6616 17.6272 32.7339 15.6764 32.7218C15.3715 32.7218 15.0545 32.7218 14.8468 32.685V28.1192H13.3465V33.8074C13.8343 33.8695 14.493 33.9178 15.3715 33.9178C16.9691 33.9178 18.275 33.5393 19.0919 32.7954C19.8726 32.0878 20.3725 30.9908 20.3725 29.5266C20.3725 28.1241 19.8853 27.1478 19.0919 26.5017C18.336 25.8672 17.2746 25.5502 15.7374 25.5502C15.0986 25.5502 14.4882 25.5828 13.9496 25.6402C13.94 25.5025 13.9689 25.3981 14.0432 25.3099C14.3463 24.9537 15.3256 24.877 16.1902 24.8094C17.5251 24.7055 19.0394 24.5878 18.9989 23.3748C18.9893 23.1055 18.8824 22.8677 18.685 22.6889C18.0462 22.1051 16.5211 22.1963 15.0455 22.2832C14.0523 22.3424 12.82 22.4154 12.5175 22.1166C12.6159 21.8775 12.9963 21.8165 13.5916 21.7483C14.0649 21.6927 14.5818 21.6293 14.9615 21.3721C15.5146 21.2822 15.9378 20.8058 15.9378 20.2274V18.7759H18.295V14.2977H28.4081C28.9358 14.2977 29.3639 13.8697 29.3639 13.342C29.3639 12.8143 28.9352 12.3838 28.4075 12.3838Z" fill="white"/>
<path d="M10.5715 10.5091H10.772V8.47134H10.5715C10.0082 8.47134 9.55238 8.92719 9.55238 9.49051C9.55238 10.0538 10.0082 10.5091 10.5715 10.5091Z" fill="white"/>
<path d="M18.6083 8.47137V10.5091H18.8088C19.3727 10.5091 19.8279 10.0532 19.8279 9.48993C19.8279 8.92661 19.3721 8.47076 18.8088 8.47076L18.6083 8.47137Z" fill="white"/>
<path d="M15.2852 7.6774L15.4512 7.67559C15.4385 6.6679 15.6704 5.94338 16.1588 5.46036C17.0868 4.54384 18.8885 4.5861 20.6303 4.63018C22.4459 4.67425 24.3242 4.71953 25.3337 3.65992C25.9 3.06521 26.1331 2.20423 26.0474 1.0293L25.446 1.07337C25.5185 2.06899 25.3391 2.77902 24.8978 3.24332C24.3568 3.81026 23.4548 3.98716 22.4036 4.03063C22.6397 3.90746 22.8576 3.75652 23.0436 3.55547C23.6051 2.94747 23.8321 2.02189 23.7373 0.726807L23.1348 0.770882C23.2175 1.89027 23.0418 2.66732 22.5992 3.14611C21.9327 3.86641 20.6974 3.87365 19.3884 3.8809C17.9653 3.88935 16.4933 3.8978 15.5623 4.84572C14.9531 5.46519 14.6657 6.39801 14.6814 7.69672L15.2852 7.68887C15.2846 7.68465 15.2852 7.68163 15.2852 7.6774Z" fill="white"/>
<path d="M11.5007 29.5852V29.561C12.4764 29.2199 12.9643 28.537 12.9643 27.7068C12.9643 26.6696 12.1226 25.7669 10.4876 25.7669C9.53607 25.7669 8.65759 26.0598 8.20657 26.3767L8.5483 27.4629C8.87736 27.2438 9.52399 26.963 10.1706 26.963C11.0364 26.963 11.4392 27.4146 11.4392 27.9508C11.4392 28.7435 10.5607 29.0611 9.86573 29.0611H9.19494V30.1588H9.88988C10.8052 30.1588 11.6831 30.5615 11.6831 31.5003C11.6952 32.1228 11.2315 32.7701 10.0855 32.7701C9.32958 32.7701 8.58513 32.4646 8.28023 32.281L7.9385 33.4161C8.36536 33.6968 9.19494 33.9643 10.1586 33.9643C12.1226 33.9643 13.245 32.9035 13.245 31.5619C13.245 30.4878 12.4644 29.756 11.5007 29.5852Z" fill="white"/>
</svg>
