<svg width="28" height="35" viewBox="0 0 28 35" fill="none" xmlns="http://www.w3.org/2000/svg">
<path d="M26.4166 29.2244C25.5901 28.2396 18.887 20.2524 18.1083 19.3244V5.6353C19.426 5.59387 20.4855 4.50967 20.4855 3.18206C20.4853 1.82822 19.3839 0.726807 18.0302 0.726807H9.20001C7.84624 0.726807 6.74476 1.82822 6.74476 3.18192C6.74476 4.50967 7.80414 5.5938 9.12194 5.63517V19.3242C7.76958 20.9356 1.68587 28.185 0.813583 29.2243C-1.07051 31.4697 0.527937 34.8896 3.45519 34.8896H23.7752C26.7062 34.8896 28.2983 31.4668 26.4166 29.2244ZM8.42554 3.18192C8.42554 2.75482 8.77298 2.40745 9.20014 2.40745H18.0304C18.4575 2.40745 18.8048 2.75489 18.8048 3.18192C18.8048 3.60896 18.4574 3.95652 18.0304 3.95652C17.184 3.95652 10.0656 3.95652 9.20014 3.95652C8.77298 3.95652 8.42554 3.60909 8.42554 3.18192ZM10.606 20.1704C10.733 20.019 10.8027 19.8278 10.8027 19.6302V17.4025H12.7417C13.2058 17.4025 13.5821 17.0264 13.5821 16.5622C13.5821 16.098 13.2058 15.7219 12.7417 15.7219H10.8027V14.3715H12.7417C13.2058 14.3715 13.5821 13.9954 13.5821 13.5312C13.5821 13.067 13.2058 12.6908 12.7417 12.6908H10.8027V11.3406H12.7417C13.2058 11.3406 13.5821 10.9644 13.5821 10.5002C13.5821 10.036 13.2058 9.6599 12.7417 9.6599H10.8027V5.63724H16.4274V19.6303C16.4274 19.8279 16.497 20.0192 16.6241 20.1705L19.5672 23.6773H7.66315L10.606 20.1704ZM23.7751 33.2089H3.45519C1.9501 33.2089 1.13293 31.4585 2.10109 30.3048L6.2526 25.358H20.9777L25.1292 30.3048C26.0967 31.4578 25.2813 33.2089 23.7751 33.2089Z" fill="white"/>
<path d="M17.6999 26.7478C16.3017 26.7478 15.1642 27.8852 15.1642 29.2834C15.1642 30.6816 16.3017 31.8191 17.6999 31.8191C19.0981 31.8191 20.2355 30.6816 20.2355 29.2834C20.2355 27.8853 19.0981 26.7478 17.6999 26.7478ZM17.6999 30.1384C17.2284 30.1384 16.8449 29.7549 16.8449 29.2834C16.8449 28.812 17.2284 28.4285 17.6999 28.4285C18.1713 28.4285 18.5548 28.812 18.5548 29.2834C18.5548 29.7549 18.1713 30.1384 17.6999 30.1384Z" fill="white"/>
</svg>
