<svg width="27" height="34" viewBox="0 0 27 34" fill="none" xmlns="http://www.w3.org/2000/svg">
<path d="M9.26904 0.616231C9.90391 0.061889 10.8566 -0.143386 11.682 0.102972C11.9995 0.205681 12.2747 0.390556 12.571 0.575148C12.804 0.71894 13.0791 0.780565 13.2907 0.944898C13.3966 1.02706 13.3119 1.17072 13.3119 1.27328C13.5871 1.90979 13.7353 2.60793 13.5025 3.28552C13.3119 3.51133 12.9732 3.5731 12.6981 3.67567C12.6557 3.96311 12.7616 4.23001 12.804 4.51745C12.7404 4.55854 12.6981 4.59962 12.6345 4.6407C13.0367 4.62016 13.439 4.53799 13.8412 4.45597C13.9893 4.31218 14.2221 4.39434 14.4127 4.3738C14.4338 4.08622 14.5397 3.81932 14.5397 3.53188C14.5821 3.53188 14.6668 3.51133 14.709 3.49079C14.7302 3.69621 14.709 3.90163 14.7725 4.1069C14.8782 4.18907 15.0477 4.14798 15.1747 4.16838C15.1747 4.25055 15.1747 4.33272 15.1958 4.41489C17.6512 4.39434 20.1277 4.41489 22.5832 4.41489V4.76395H22.8162V3.42931H23.0913C23.0913 3.79892 23.0701 4.14784 23.0913 4.51745C23.1203 4.54317 23.1579 4.55777 23.1972 4.55854C23.1972 4.59962 23.2182 4.68179 23.2182 4.72287C23.3029 4.6407 23.4088 4.57908 23.5357 4.62016C23.5569 4.68179 23.5781 4.74341 23.5993 4.82558C23.5146 4.90774 23.4722 5.01031 23.5146 5.13342C24.1921 5.15396 24.8694 5.13342 25.568 5.13342C25.6314 5.05125 25.7372 5.01017 25.8431 4.96909C25.8855 4.98977 25.9489 5.03085 25.9702 5.05125H26.9649C27.0073 5.21559 27.0073 5.37992 26.9861 5.52357H25.97C25.9489 5.54411 25.8853 5.60574 25.843 5.62628C25.7372 5.56465 25.6525 5.52357 25.5467 5.46194H23.7052C23.3453 5.56465 22.9643 5.54411 22.6044 5.48249V5.87264H19.5774C19.4504 5.97534 19.3235 6.03697 19.1542 6.05751C19.2176 6.36549 18.8577 6.44752 18.7307 6.67348C18.6461 6.79673 18.5192 6.87875 18.3921 6.91984C18.2862 7.55635 18.5192 8.15177 18.6886 8.74734C18.498 8.78842 18.2862 8.84991 18.0957 8.89099C17.9899 9.30168 17.884 9.73277 17.7995 10.1433C17.7148 10.5131 17.4183 10.8211 17.0586 10.9647C16.8045 11.2523 16.4659 11.5397 16.0637 11.5603C15.9155 11.6014 15.8096 11.4987 15.7039 11.4165C15.1747 11.4576 14.6878 11.2111 14.2221 11.0058C13.7141 10.78 13.2484 10.4925 12.7616 10.2256C12.804 10.5131 12.6557 10.7594 12.5498 11.0058C12.7828 11.1085 13.1003 11.1907 13.2272 11.437C13.3119 11.6218 13.3966 11.8272 13.3966 12.053C13.3754 12.7922 13.2907 13.5313 13.2484 14.2705C13.2695 14.8044 12.9944 15.3382 12.6134 15.7283C12.3594 15.7079 12.1478 15.6051 11.9148 15.5024C11.8301 15.6873 11.6397 15.8722 11.7454 16.098C11.8301 16.3649 11.8301 16.6523 11.9572 16.8987C12.6769 17.6379 13.2907 18.4592 13.7353 19.3831C14.1797 20.2661 14.5184 21.1901 14.8782 22.114C14.9418 22.114 15.0688 22.0935 15.1324 22.0935C15.2171 22.3604 15.1324 22.6684 15.3018 22.9149C15.4499 23.1407 15.4075 23.4076 15.4075 23.6745C15.3652 24.2905 15.3228 24.9064 15.2593 25.5224C15.2169 25.9536 15.1112 26.3849 15.0477 26.8161C15.0688 27.1445 15.2171 27.473 15.1958 27.8015C15.1747 28.1096 15.1747 28.438 14.9206 28.664C14.9418 29.3621 14.7512 30.0601 15.0053 30.7377C15.3441 31.1895 15.725 31.6207 16.1272 32.0107C16.5717 32.2161 17.1009 32.2572 17.482 32.6268C17.6301 32.8527 17.5454 33.1196 17.5031 33.3659C16.5974 33.4891 15.6783 33.4891 14.7725 33.3659C14.4127 33.2837 14.074 33.1401 13.7141 33.099C13.2272 33.1196 12.6557 33.3044 12.2113 32.9758C12.1689 32.4214 12.3806 31.8876 12.4864 31.3537C12.5288 31.1689 12.7192 31.0457 12.6981 30.861C12.6557 30.2245 12.6134 29.5674 12.571 28.9309C12.4863 28.8898 12.3382 28.8487 12.3594 28.7255C12.3594 28.4176 12.2535 28.1096 12.1689 27.8221C12.0207 27.0419 11.9572 26.2411 11.936 25.4404C11.9148 25.2144 12.0631 25.0502 12.2325 24.9064C12.2748 24.5574 12.3172 24.1879 12.3382 23.8388C12.2747 23.6539 12.1264 23.5102 12.0417 23.346C11.6608 23.387 11.1105 23.4692 10.8777 23.0791C10.3273 22.2782 9.75581 21.457 9.20551 20.6563C8.97257 20.6357 8.69742 20.6563 8.48579 20.5125C8.25285 20.266 8.10461 19.9376 7.95652 19.6296C7.89299 19.876 7.85064 20.1429 7.7024 20.3482C7.57549 20.5536 7.36387 20.6972 7.21563 20.8821C7.06754 21.2106 6.94048 21.5391 6.81356 21.8677C6.66532 22.2782 6.4537 22.6889 6.41135 23.1407C6.39017 23.3665 6.34782 23.5719 6.26311 23.7772C6.15737 23.9415 5.96678 24.003 5.79752 24.0852C5.67046 24.3521 5.58575 24.619 5.3953 24.8449C5.26824 24.9886 5.05648 25.0297 4.97191 25.2144C4.88721 25.4609 4.76015 25.6867 4.65441 25.9125C4.61206 26.159 4.78147 26.4259 4.69676 26.6723C4.54853 27.2883 4.23102 27.8631 3.93469 28.4176C3.7866 28.8282 3.68072 29.2594 3.4691 29.6496C3.38439 29.8139 3.17262 29.855 3.00335 29.8754C2.81291 30.3272 2.60114 30.7583 2.47423 31.2306C2.4107 31.6822 2.4107 32.1545 2.43187 32.6062C2.43187 32.8116 2.55893 32.9759 2.64364 33.1606C2.7282 33.4071 2.66467 33.6534 2.62232 33.8999C1.79686 34.0024 0.950086 34.0846 0.145808 33.8382C0.0611007 33.7766 0.0822773 33.6739 0.0611005 33.5917C-0.00242969 33.2223 -0.044783 32.8321 0.0822775 32.483C0.357429 31.518 0.590227 30.553 0.865379 29.5879C0.759641 29.4852 0.611404 29.4032 0.611404 29.2389C0.590227 28.972 0.611404 28.6845 0.674934 28.4176C0.801995 27.9657 1.14068 27.6168 1.30994 27.1856C1.37347 27.0008 1.3523 26.8159 1.37347 26.6312C1.37347 26.2 1.6276 25.8509 1.81804 25.4814C2.00849 25.1735 2.15658 24.8449 2.4107 24.5779C2.58011 24.4342 2.58011 24.2084 2.70703 24.0236C2.83409 23.7977 3.04571 23.6129 3.04571 23.346C3.08806 23.0174 2.961 22.6889 3.00335 22.3604C3.08806 21.3954 3.27851 20.4509 3.44792 19.486C3.36321 19.3831 3.23615 19.2805 3.1938 19.1368C3.21498 19.0342 3.23615 18.952 3.25733 18.8493L3.06688 18.5413C3.15159 18.4181 3.2363 18.2744 3.32101 18.1512C3.2363 18.0896 3.13041 18.0075 3.04571 17.9458C3.15159 17.6379 3.10924 17.1861 3.49013 17.0425C3.53248 17.063 3.63836 17.0836 3.68072 17.104C3.61719 16.5702 3.61719 16.0158 3.55366 15.4819C3.40557 14.907 3.38424 14.3117 3.44792 13.7366C3.65954 13.4287 4.06175 13.3055 4.42161 13.2849C3.95587 13.1824 3.49013 13.1413 3.04571 12.9975C3.02453 12.6279 3.08806 12.2583 3.15159 11.8888C3.34204 11.1701 3.25733 10.431 3.36321 9.69169C3.4691 9.48641 3.74425 9.44533 3.97705 9.48641C4.2522 9.5275 4.52735 9.44533 4.80265 9.36316C4.80265 9.2606 4.82382 9.13735 4.80265 9.03464C4.63323 8.31611 4.67559 7.57689 4.80265 6.87875C4.97206 5.97534 5.35295 5.09234 6.05134 4.45597C6.51723 4.02473 7.19445 3.81932 7.82961 3.83986C8.04123 3.83986 8.16814 4.04528 8.33756 4.16853C8.42226 4.08636 8.50697 4.00419 8.57036 3.92203C8.46462 3.57296 8.2952 3.20335 8.31638 2.83388C8.35873 2.0125 8.63388 1.17072 9.2689 0.616231H9.26904ZM15.8731 6.42698C15.9155 6.46806 15.9155 6.46806 15.8731 6.42698V6.42698ZM16.1696 6.46806C16.1906 6.61185 16.233 6.75565 16.1484 6.87875C16.0425 6.91984 15.9155 6.91984 15.8096 6.98146C16.1061 6.98146 16.4024 7.002 16.6987 6.98146C16.9315 6.91984 16.847 6.6324 16.847 6.46806C16.6987 6.30373 16.3812 6.40644 16.1696 6.46806ZM15.4287 7.33053C15.6405 7.55635 15.7462 7.90541 15.9366 8.13123C16.2118 7.78216 16.4236 7.41255 16.7411 7.10457C16.36 7.08403 15.979 7.12511 15.598 7.08403C15.5344 7.1662 15.4922 7.24836 15.4286 7.33053H15.4287Z" fill="white"/>
</svg>
