<svg width="33" height="34" viewBox="0 0 33 34" fill="none" xmlns="http://www.w3.org/2000/svg">
<path d="M26.842 23.9197C26.4943 23.3719 23.9459 19.4022 21.7678 17.3024C19.9506 15.5576 17.2308 15.5071 16.9224 15.5071C16.8944 15.5072 16.8662 15.5083 16.8386 15.5105H16.1792C15.8879 15.5105 13.2777 15.5601 11.3686 17.2786C9.01313 19.4013 6.40689 23.6827 6.22453 23.9845C4.84389 26.1674 3.99771 27.5871 3.99771 29.1655C3.99771 32.0097 6.08167 33.8476 9.30679 33.8476H23.8005C27.0248 33.8476 29.1081 32.008 29.1081 29.1608C29.1081 27.5684 28.2599 26.1508 26.8756 23.9699C26.8647 23.9529 26.8536 23.936 26.842 23.9197ZM23.8005 31.6452H9.30679C8.14654 31.6452 6.20016 31.323 6.20016 29.1655C6.20016 28.2436 6.80598 27.1849 8.09206 25.152C8.09632 25.1453 8.10058 25.1384 8.10484 25.1315C8.13053 25.0889 10.6936 20.852 12.8426 18.9153C14.1531 17.7357 16.1605 17.7132 16.18 17.7131H16.9259C16.9469 17.7131 16.9676 17.7125 16.9885 17.7113C17.3469 17.7248 19.1526 17.8445 20.2411 18.8895C22.3382 20.9116 24.9872 25.1073 25.0138 25.1494C25.0257 25.1683 25.038 25.1867 25.0509 25.2046C26.4188 27.3627 26.9058 28.2907 26.9058 29.1605C26.9057 31.2141 25.217 31.6452 23.8005 31.6452Z" fill="white"/>
<path d="M11.2373 12.8402C13.723 12.8402 15.67 10.0752 15.67 6.5456C15.6701 3.01669 13.723 0.252319 11.2373 0.252319C8.75192 0.252319 6.80495 3.01669 6.80495 6.5456C6.80495 10.0754 8.75192 12.8402 11.2373 12.8402ZM11.2373 2.45477C12.2921 2.45477 13.4675 4.1348 13.4675 6.5456C13.4675 8.95713 12.292 10.6377 11.2373 10.6377C10.1826 10.6377 9.00725 8.95713 9.00725 6.5456C9.0074 4.1348 10.1826 2.45477 11.2373 2.45477Z" fill="white"/>
<path d="M5.43253 20.4115C5.86583 20.4115 6.27974 20.3224 6.66781 20.1443C8.60039 19.2457 9.13852 16.4255 7.89237 13.7232C6.9255 11.6306 5.13682 10.2247 3.44108 10.2247C3.00734 10.2247 2.59284 10.3142 2.20756 10.4915C0.27234 11.387 -0.267554 14.2078 0.978886 16.9147C1.94576 19.0062 3.73547 20.4114 5.43224 20.4115H5.43253ZM2.97871 15.9921C2.2334 14.3734 2.44498 12.8084 3.13039 12.4913C3.22421 12.4482 3.32567 12.4272 3.44093 12.4272C4.1325 12.4272 5.22668 13.2051 5.89255 14.6462C6.63786 16.2625 6.42628 17.8277 5.74411 18.1449C5.64984 18.1881 5.54794 18.2092 5.43238 18.2092C4.73993 18.2091 3.64444 17.4314 2.97871 15.9921Z" fill="white"/>
<path d="M21.8668 12.8402C24.3516 12.8402 26.2981 10.0752 26.2981 6.5456C26.2981 3.01669 24.3516 0.252319 21.8668 0.252319C19.3796 0.252319 17.4315 3.01669 17.4315 6.5456C17.4315 10.0754 19.3796 12.8402 21.8668 12.8402ZM21.8668 2.45477C22.921 2.45477 24.0956 4.1348 24.0956 6.5456C24.0956 8.95713 22.921 10.6377 21.8668 10.6377C20.8108 10.6377 19.6339 8.95713 19.6339 6.5456C19.6339 4.1348 20.8108 2.45477 21.8668 2.45477Z" fill="white"/>
<path d="M30.8987 10.4918C30.5145 10.3138 30.0989 10.2235 29.6637 10.2235C27.9705 10.2235 26.1824 11.6299 25.2149 13.7221C23.9632 16.4231 24.5009 19.2443 26.4436 20.1467C26.8267 20.3225 27.2407 20.4116 27.674 20.4116C29.3712 20.4116 31.1605 19.0062 32.1265 16.9138C33.374 14.2088 32.8344 11.3878 30.8987 10.4918ZM30.1267 15.991C29.4615 17.4317 28.3666 18.209 27.674 18.209C27.5583 18.209 27.4564 18.188 27.3667 18.1469C26.6772 17.8267 26.465 16.2624 27.2136 14.6472C27.8808 13.2043 28.9738 12.4258 29.6637 12.4258C29.7784 12.4258 29.8796 12.4468 29.9731 12.4902C30.6608 12.8088 30.8726 14.3737 30.1267 15.991Z" fill="white"/>
</svg>
