<svg width="43" height="35" viewBox="0 0 43 35" fill="none" xmlns="http://www.w3.org/2000/svg">
<path d="M9.18953 12.0664L8.29488 10.4364C7.35243 10.9539 6.4312 11.5343 5.55609 12.1619L6.64011 13.6726C7.45463 13.0885 8.31217 12.5479 9.18953 12.0664Z" fill="white"/>
<path d="M14.7697 9.82559L14.2896 8.02911C13.2509 8.30676 12.2178 8.65104 11.2192 9.05212L11.9122 10.7776C12.8421 10.4041 13.8031 10.084 14.7697 9.82559Z" fill="white"/>
<path d="M33.2033 9.96406C32.2426 9.48398 31.2411 9.05704 30.225 8.69476L29.6008 10.4463C30.5464 10.7831 31.4784 11.1804 32.3722 11.6273L33.2033 9.96406Z" fill="white"/>
<path d="M40.9251 15.786L39.556 17.0433C40.234 17.7814 40.8737 18.5685 41.4578 19.3814L42.9686 18.2974C42.3413 17.4235 41.654 16.5784 40.9251 15.786Z" fill="white"/>
<path d="M34.9808 13.1361C35.8148 13.6893 36.6248 14.3001 37.3869 14.9509L38.5942 13.5368C37.7751 12.8371 36.905 12.1807 36.0078 11.5864L34.9808 13.1361Z" fill="white"/>
<path d="M0.794495 16.5338L2.20789 17.7418C2.85864 16.9804 3.56308 16.2509 4.30085 15.5738L3.04364 14.2044C2.25063 14.9316 1.49416 15.7156 0.794495 16.5338Z" fill="white"/>
<path d="M15.7362 10.6812L16.6702 10.6817L17.8035 8.96341L21.4459 8.98886L19.8161 14.6069C19.8161 14.7708 19.9494 14.9043 20.1133 14.9043H21.6119L24.7421 9.09907L27.6151 9.19452C28.4329 9.19452 29.0946 8.56824 29.0946 7.79561C29.0952 7.02368 28.4323 6.3974 27.6158 6.3974L24.7214 6.49412L21.6122 0.727088L20.1129 0.726807C19.949 0.727088 19.8157 0.860639 19.8157 1.02456L21.4342 6.60349L17.7834 6.63512L16.6695 4.94998L15.7355 4.95026C15.6112 4.95026 15.5109 5.05036 15.5109 5.17435V10.4576C15.5116 10.5811 15.6122 10.6819 15.7362 10.6812Z" fill="white"/>
<path d="M24.8773 17.7699C23.6603 17.4926 22.4167 17.3518 21.1791 17.3518C13.3964 17.3518 6.75117 22.6597 5.0195 30.2591C4.68759 31.7156 4.5584 33.186 4.61702 34.6397H6.47788V34.6393C6.41814 33.3244 6.53116 31.9931 6.83144 30.6748C7.44002 30.8325 10.1607 31.5874 10.0742 32.4628C10.0014 33.1969 9.76522 34.0331 9.96175 34.6391H11.672C11.907 34.4681 12.1334 34.3865 12.355 34.6196C12.3609 34.6261 12.3686 34.6327 12.3748 34.6391H25.8805C22.7017 32.6144 22.252 29.0373 22.252 29.0373C22.0276 28.9397 22.6694 26.3989 21.67 26.0937C20.669 25.7888 20.0381 26.0332 18.6207 25.4008C17.2014 24.7683 17.7327 23.8845 17.9658 21.7753C18.0654 20.8753 18.2944 20.0697 18.5862 19.4366C19.4294 19.2882 20.2955 19.2107 21.1788 19.2107C22.277 19.2107 23.3828 19.3356 24.4646 19.582C28.3013 20.4559 31.568 22.7718 33.6628 26.1021C35.2419 28.6134 36.0111 31.4747 35.9203 34.375C35.7989 34.4633 35.6684 34.5513 35.532 34.6397H37.7683C37.9157 31.3019 37.053 28.0009 35.2364 25.1124C32.8779 21.3615 29.1988 18.7541 24.8773 17.7699Z" fill="white"/>
</svg>
