<svg width="55" height="55" viewBox="0 0 55 55" fill="none" xmlns="http://www.w3.org/2000/svg">
<path d="M49.6196 7.77176H5.38043C2.59455 7.77176 0.298949 9.9 0.0239487 12.6141L23.8175 36.4076C25.7305 38.3207 29.162 38.4282 31.3023 36.2881L54.9762 12.6141C54.701 9.9 52.4054 7.77176 49.6196 7.77176Z" fill="#5D5757"/>
<path d="M33.8379 38.8237C32.1425 40.5202 29.8796 41.4543 27.4673 41.4543C25.1309 41.4543 22.8762 40.5401 21.2812 38.9439L0 17.6637V41.8478C0 44.8131 2.41527 47.2282 5.38044 47.2282H49.6196C52.5847 47.2282 55 44.8131 55 41.8478V17.6635L33.8379 38.8237Z" fill="#5D5757"/>
</svg>
